HIERARCHY
ROOT Hips
{
  OFFSET 13.6774 106.653 -34.4427
  CHANNELS 6 Xposition Yposition Zposition Zrotation Xrotation Yrotation
  JOINT ToSpine
  {
    OFFSET -2.69724 7.43032 -0.144315
    CHANNELS 3 Zrotation Xrotation Yrotation
    JOINT Spine
    {
      OFFSET -0.0310711 10.7595 1.96963
      CHANNELS 3 Zrotation Xrotation Yrotation
      JOINT Spine1
      {
        OFFSET 19.9056 3.91189 0.764692
        CHANNELS 3 Zrotation Xrotation Yrotation
        JOINT Neck
        {
          OFFSET 25.9749 7.03908 -0.130764
          CHANNELS 3 Zrotation Xrotation Yrotation
          JOINT Head
          {
            OFFSET 9.52751 0.295786 -0.907742
            CHANNELS 3 Zrotation Xrotation Yrotation
            End Site
            {
              OFFSET 16.4037 0.713936 2.7358
            }
          }
        }
        JOINT LeftShoulder
        {
          OFFSET 17.7449 4.33886 11.7777
          CHANNELS 3 Zrotation Xrotation Yrotation
          JOINT LeftArm
          {
            OFFSET 0.911315 1.27913 9.80584
            CHANNELS 3 Zrotation Xrotation Yrotation
            JOINT LeftForeArm
            {
              OFFSET 28.6126 1.18197 -3.53199
              CHANNELS 3 Zrotation Xrotation Yrotation
              JOINT LeftHand
              {
                OFFSET 27.5088 0.0218783 0.327423
                CHANNELS 3 Zrotation Xrotation Yrotation
                End Site
                {
                  OFFSET 18.6038 -0.000155887 0.382096
                }
              }
            }
          }
        }
        JOINT RightShoulder
        {
          OFFSET 17.1009 2.89543 -12.2328
          CHANNELS 3 Zrotation Xrotation Yrotation
          JOINT RightArm
          {
            OFFSET 1.4228 0.178766 -10.211
            CHANNELS 3 Zrotation Xrotation Yrotation
            JOINT RightForeArm
            {
              OFFSET 28.733 1.87905 2.64907
              CHANNELS 3 Zrotation Xrotation Yrotation
              JOINT RightHand
              {
                OFFSET 27.4588 0.290562 -0.101845
                CHANNELS 3 Zrotation Xrotation Yrotation
                End Site
                {
                  OFFSET 17.8396 -0.255518 -0.000602873
                }
              }
            }
          }
        }
      }
    }
  }
  JOINT LeftUpLeg
  {
    OFFSET -5.61296 -2.22332 -10.2353
    CHANNELS 3 Zrotation Xrotation Yrotation
    JOINT LeftLeg
    {
      OFFSET 2.56703 -44.7417 -7.93097
      CHANNELS 3 Zrotation Xrotation Yrotation
      JOINT LeftFoot
      {
        OFFSET 3.16933 -46.5642 -3.96578
        CHANNELS 3 Zrotation Xrotation Yrotation
        JOINT LeftToeBase
        {
          OFFSET 0.346054 -6.02161 12.8035
          CHANNELS 3 Zrotation Xrotation Yrotation
          End Site
          {
            OFFSET 0.134235 -1.35082 5.13018
          }
        }
      }
    }
  }
  JOINT RightUpLeg
  {
    OFFSET -5.7928 -1.72406 10.6446
    CHANNELS 3 Zrotation Xrotation Yrotation
    JOINT RightLeg
    {
      OFFSET -2.57161 -44.7178 -7.85259
      CHANNELS 3 Zrotation Xrotation Yrotation
      JOINT RightFoot
      {
        OFFSET -3.10148 -46.5936 -4.03391
        CHANNELS 3 Zrotation Xrotation Yrotation
        JOINT RightToeBase
        {
          OFFSET -0.0828122 -6.13587 12.8035
          CHANNELS 3 Zrotation Xrotation Yrotation
          End Site
          {
            OFFSET -0.131328 -1.35082 5.13018
          }
        }
      }
    }
  }
}
MOTION
Frames: 21
Frame Time: 0.03333333333333333
0.0000 93.1000 0.0000 54.0342 -20.3855 -15.1140 -71.0000 -0.6296 87.9987 147.1393 55.0667 -56.0353 -10.8172 19.2232 2.9883 -164.2958 -3.8906 -164.6810 -142.3944 35.1703 -174.2735 -1.5975 -20.0506 -39.4855 -73.9709 40.0923 -77.7383 8.7190 11.6758 -38.0915 -0.8298 -0.8229 1.2283 -2.0204 6.9974 37.7423 -91.0253 -22.8696 80.9615 0.9153 -2.0775 53.8247 0.6395 0.9323 0.7278 3.0257 15.1823 91.1031 -39.8371 83.2326 27.0764 -1.4132 -13.5348 -1.6536 7.4587 -17.9928 21.3403 -14.9270 -9.9481 114.1856 6.9281 64.8158 1.9667 -4.7827 -19.3388 0.0552 1.8130 -26.2513 -21.4875 
0.0000 93.1000 0.0000 54.9347 -18.1117 -14.1108 -70.9985 -0.2660 88.0013 146.9919 55.7317 -57.5457 -11.3210 20.0571 2.5968 -164.3137 -2.3631 -165.5112 -141.4476 36.6557 -173.4624 -1.5820 -19.3180 -38.8159 -66.6511 44.1339 -79.7435 7.2248 10.6805 -37.1638 -1.0840 -0.4842 0.9886 -2.0015 7.1105 38.2890 -90.0499 -25.9393 81.7873 5.3282 -2.9292 62.8197 0.3246 0.7065 0.5930 4.8839 16.0891 90.9184 -32.7502 82.2903 23.9186 -1.1005 -13.0066 -1.7983 7.3779 -17.7699 20.7646 -17.0209 -12.9930 112.8736 6.9472 64.4546 1.8439 -4.7824 -21.2173 0.2537 0.4162 -25.8724 -20.2641 
0.0000 93.1000 0.0000 55.9704 -15.7657 -10.8447 -70.9975 -0.2326 88.0046 147.1416 56.9872 -59.1446 -11.7621 21.0704 3.1044 -165.2741 -0.9810 -169.2037 -142.0536 37.8723 -174.4641 -0.6985 -18.1997 -36.3203 -60.3599 49.2880 -80.6857 7.8008 10.8965 -39.4272 -0.9647 -0.5663 0.8153 -1.5871 7.0256 38.6037 -88.0100 -29.3416 83.8629 10.3385 -3.9193 72.7068 0.3895 0.7983 0.9289 6.8949 18.2585 91.1397 -33.1538 83.3885 27.9523 -0.2332 -12.7465 -2.1447 6.0560 -15.9110 22.0019 -21.9269 -15.3101 110.0503 6.0406 63.1548 1.7760 -4.1038 -23.7977 0.5713 0.9384 -26.4525 -19.2859 
0.0000 93.1000 0.0000 57.2086 -12.4156 -7.0500 -70.9963 -0.2953 88.0052 146.1406 58.6441 -58.2080 -12.4662 21.8644 3.8022 -167.3434 -0.1955 -172.0614 -142.8933 38.0673 -175.4943 0.0324 -16.6848 -33.3952 -57.5260 54.8193 -76.7103 9.7503 9.8901 -45.9850 -0.5191 -0.6522 0.5802 -1.2806 6.5410 38.2003 -85.7369 -33.8990 84.7272 17.0050 -3.4559 83.0353 0.5354 0.9002 1.1939 8.8059 20.7706 92.7202 -39.1177 83.8947 35.0500 0.8545 -11.3409 -2.2079 5.2835 -16.1823 22.5727 -29.0434 -17.7870 106.3611 5.0080 58.7982 1.8167 -2.5523 -24.3782 0.5498 1.8746 -26.9276 -19.0809 
0.0000 93.1000 0.0000 56.9092 -9.2114 -2.9058 -70.9929 0.2313 88.0025 144.1527 61.6130 -56.1725 -12.4785 22.3988 4.9080 -165.4215 1.9285 -174.0319 -144.0434 40.0976 -176.7917 0.2140 -15.6115 -30.9684 -55.0305 60.3005 -72.5471 9.4027 7.0643 -52.2582 -0.0754 -0.1553 0.0508 -1.3865 6.2736 37.9947 -82.9839 -37.2204 84.0655 19.6216 0.1649 91.5037 0.0593 0.3495 0.6538 10.2671 22.3672 94.8422 -51.9862 85.3381 50.8739 1.9077 -9.4019 -2.2658 5.3157 -14.8987 19.2409 -39.6480 -20.6874 98.8832 2.7184 49.4196 4.8870 -0.3345 -20.6241 0.6171 1.9292 -29.1657 -17.8772 
0.0000 93.1000 0.0000 57.2785 -5.9883 1.9289 -70.9930 -0.1846 88.0030 142.1264 64.5845 -55.1521 -12.6988 23.0520 5.8364 -163.4765 3.8605 -177.1998 -144.2154 42.6368 -175.5166 -0.0599 -15.2136 -29.0136 -57.3494 64.1000 -65.6768 8.8423 5.8721 -55.0256 0.2772 -0.2725 -0.0569 -1.6966 5.8929 36.8718 -80.8762 -41.3010 81.9061 25.0692 2.5395 96.0330 0.2778 0.3921 0.4634 7.5584 23.8872 97.0844 -59.1235 85.0121 54.9516 1.1146 -8.2338 -1.5452 6.1937 -16.9500 19.5164 -51.0442 -22.3238 87.3086 1.0255 36.4609 10.9706 2.7280 -9.8937 -0.1740 2.5988 -31.9312 -17.1182 
0.0000 93.1000 0.0000 58.9626 -4.7839 6.3915 -70.9933 0.2316 87.9988 144.1839 66.3078 -56.9884 -12.7599 23.9396 6.3072 -163.6336 6.1859 -178.1032 -148.1698 45.1714 -173.1712 -1.3668 -15.1470 -29.1396 -66.5107 66.1346 -55.6379 6.9016 4.8181 -55.2530 0.8173 0.7504 -0.8819 -2.4023 5.7991 35.9831 -77.9439 -42.8869 80.9647 26.3471 4.4811 96.8341 -0.2710 -0.9753 -0.8368 1.2414 25.0204 99.8931 -45.9939 84.2662 37.8094 0.1504 -7.9097 -0.8697 7.2849 -17.6737 18.2059 -60.9959 -21.9950 74.2395 -1.9314 25.9958 13.9513 5.5406 5.5154 -0.5266 1.9225 -30.4303 -11.5983 
0.0000 93.1000 0.0000 55.7203 -2.6125 10.1233 -70.9919 -0.3040 87.9968 137.0813 69.3139 -50.4854 -10.8776 24.9173 4.3840 -166.4273 7.8720 178.7704 -151.3921 47.0387 -172.2741 -0.5905 -14.7602 -29.9405 -72.7506 64.8384 -52.6135 3.2907 2.2924 -54.3237 -0.1987 0.0435 0.1256 -2.0363 5.8832 35.2632 -76.8739 -43.8138 80.5373 26.3815 2.2549 94.7731 0.2826 0.0769 -0.1016 -3.1323 21.7284 102.0484 -30.1688 80.9626 20.7560 -0.9100 -13.7812 -1.0813 6.4288 -15.1417 15.0666 -63.4124 -17.1190 76.9907 -3.0084 23.1463 9.8531 1.2090 14.0110 -1.5265 0.7641 -16.3604 -15.6713 
0.0000 93.1000 0.0000 53.4522 1.0581 12.1521 -70.9923 -0.2224 87.9986 127.9927 70.5674 -42.4291 -9.0283 24.6785 2.8519 -166.4787 9.9051 175.7828 -153.4567 48.7805 -170.0824 -0.1018 -14.7181 -32.4678 -79.0048 59.3804 -50.7402 3.0506 1.4868 -55.0394 0.0043 -0.0692 0.1870 -1.7243 5.6921 36.9374 -76.0388 -42.8496 79.0986 23.8158 -1.4543 87.7136 0.0686 0.2030 0.1248 -7.1369 18.2232 102.8017 -22.4650 79.3538 9.2190 -0.6155 -18.5897 -1.7214 5.9698 -15.0657 18.5612 -61.0544 -11.0848 89.8002 -0.0202 32.2298 -10.0704 -4.2149 10.3135 -0.6493 1.8709 -10.2718 -19.8918 
0.0000 93.1000 0.0000 52.0466 6.0265 15.8024 -70.9920 0.0491 88.0011 124.0534 69.8488 -40.0504 -7.6680 23.8918 2.0091 -166.3968 11.4714 174.3250 -154.7533 50.5508 -168.1337 -0.4177 -14.9907 -34.6527 -83.0020 53.1773 -51.7517 3.0761 2.0067 -56.3233 0.0731 0.1493 0.2138 -1.8853 5.9241 38.1860 -75.8739 -42.7745 77.1826 21.7297 -4.9956 77.8490 -0.0793 -0.0292 -0.1005 -9.4211 13.9168 101.6770 -22.0035 79.2957 10.8589 0.3386 -20.2109 -1.9751 6.5898 -14.5084 15.1769 -54.9234 -5.1410 93.2474 0.9842 49.2386 -7.9569 -4.5798 7.2809 -0.2142 2.0013 -11.0572 -16.3595 
0.0000 93.1000 0.0000 50.9938 11.8118 18.8695 -70.9948 0.0307 88.0033 124.0573 68.1739 -43.5535 -6.8935 22.6413 1.6323 -168.5805 13.0792 170.3080 -151.7391 52.0511 -169.1644 -1.1160 -15.4440 -36.0767 -85.9793 46.1797 -56.7601 4.2741 2.0258 -59.2683 0.2359 0.2481 0.1643 -2.3363 6.1672 41.0783 -71.0469 -41.4935 77.7336 17.3956 -7.7644 66.8942 -0.0749 -0.1689 -0.2598 -12.3380 9.1700 100.2677 -22.6641 78.9413 9.1460 0.3155 -18.6887 -1.5913 7.9974 -18.1142 16.9575 -47.1181 -0.9553 91.3239 4.9692 66.3814 -7.9383 -3.0566 7.5538 -0.3098 1.8873 -13.9673 -11.2169 
0.0000 93.1000 0.0000 49.9821 16.4847 20.8762 -70.9982 -0.1484 88.0028 125.0078 66.5157 -46.9393 -6.5698 20.7162 2.1383 -167.4034 13.9155 170.1676 -152.5700 53.1412 -167.2406 -1.3874 -15.9683 -36.1404 -89.7901 41.2749 -61.6624 6.9018 2.6021 -65.8414 0.3651 0.1523 -0.0273 -2.4933 6.2874 42.9036 -69.5857 -43.0348 73.8984 13.8675 -9.9896 57.6176 -0.1267 -0.1760 -0.1860 -18.6594 4.1662 99.9997 -21.0522 77.2501 3.7399 0.4514 -19.6335 -1.5823 9.0070 -19.9192 17.8357 -36.4633 1.0364 89.8892 26.1955 82.0828 -27.0141 -4.1468 5.2124 0.1971 2.3751 -17.8055 -10.3668 
0.0000 93.1000 0.0000 46.9050 21.0374 24.7689 -70.9987 -0.1999 88.0049 121.0786 65.6092 -41.1297 -4.6668 18.9496 2.2103 -166.3461 14.5888 170.1800 -152.4327 54.1998 -166.1022 -0.4826 -15.8058 -35.1223 -91.8340 38.9429 -67.6892 12.0621 2.6528 -74.3006 0.0563 -0.3841 0.1989 -2.2041 5.9659 44.1052 -64.7862 -45.4713 71.0329 11.6019 -11.4868 49.9017 0.4105 0.3873 0.4329 -23.2699 0.8201 97.7326 -18.2334 75.1222 -3.3492 2.6922 -23.4464 -2.4270 8.2197 -19.8866 21.2144 -22.5887 2.1025 86.0599 140.9098 83.0396 -144.0297 -7.6253 5.1985 0.5497 2.5053 -22.2773 -12.8022 
0.0000 93.1000 0.0000 45.9486 24.7617 29.8440 -70.9948 -0.0126 88.0063 119.0531 63.7960 -37.0900 -3.9030 17.0503 2.8201 -166.3463 14.7890 169.2673 -154.6133 54.1471 -166.1699 0.3082 -14.9542 -31.8818 -92.9358 40.1326 -71.8067 15.9743 1.2926 -85.4549 -0.1381 -0.4536 0.0738 -2.0650 6.1409 44.9829 -59.8858 -47.8715 65.7869 12.1915 -12.4902 46.7929 0.3945 0.5380 0.5000 -31.1167 1.1155 94.9304 -13.7931 71.1762 -10.8554 1.2940 -25.7753 -2.6931 9.5419 -19.0609 20.2948 -10.0625 2.8000 82.8387 159.2949 79.2067 -165.6762 -10.4771 3.2269 0.9107 2.2029 -22.9611 -16.0804 
0.0000 93.1000 0.0000 44.8614 27.8601 32.9685 -70.9968 0.2067 88.0039 118.9011 63.1081 -35.0668 -4.0713 15.1656 4.1043 -165.3702 13.9225 170.2908 -153.4651 52.8522 -167.0488 -0.3494 -13.9707 -29.1040 -92.0329 42.1615 -73.8169 16.2329 -1.8713 -96.2396 -0.2388 0.0128 0.0069 -2.6404 5.9573 45.7879 -61.9829 -49.4947 54.8681 13.4123 -12.2729 48.5789 0.0113 0.1306 -0.0639 -40.2969 1.8964 94.0301 -9.8566 64.2008 -15.0878 -0.2232 -20.1363 -1.7332 12.4526 -25.8818 12.5221 -0.6980 2.1284 81.2822 154.9310 81.1638 -161.0638 -10.3011 1.8205 0.7155 2.0966 -20.9907 -23.2214 
0.0000 93.1000 0.0000 45.9114 29.6683 33.9692 -70.9930 0.6486 88.0029 119.0659 62.1425 -33.9165 -4.8616 13.9109 5.1526 -163.4547 13.1090 169.3104 -147.6172 51.1357 -173.0045 -0.2141 -12.8593 -27.1977 -89.8892 43.9455 -73.7556 17.0916 -5.3681 -104.1035 0.0280 0.5094 -0.2608 -2.6136 6.1685 46.0966 -65.8648 -50.1181 44.9337 12.2980 -11.3898 49.6873 -0.5954 -0.4981 -0.6770 -52.0490 1.9554 92.0129 -6.1364 54.3237 -17.1177 -3.0398 -11.4589 -0.8434 12.9600 -27.2036 3.3223 3.5740 2.0674 80.7978 69.8895 86.1318 -76.1937 -9.7276 1.8339 0.8024 1.8579 -21.7885 -19.5819 
0.0000 93.1000 0.0000 44.9540 30.6709 34.9010 -70.9892 0.5887 88.0011 116.8337 61.9041 -29.2913 -4.8563 12.8138 4.9643 -163.3994 12.8601 170.4937 -147.4673 50.9913 -176.0381 -0.5139 -13.0989 -26.6936 -87.8691 45.5633 -72.8306 17.8822 -7.1992 -108.2492 -0.3657 0.4549 0.0091 -2.6878 5.8395 45.2513 -70.0291 -49.1903 39.9623 12.8241 -12.3307 49.8640 -0.4046 -0.4610 -0.6022 -61.4923 2.0688 88.8265 -5.3177 43.2349 -17.8865 -8.6145 4.9262 1.6130 11.0101 -26.2431 -9.4918 3.9389 1.8409 80.3031 6.8478 72.2914 -12.0594 -3.6505 2.0000 -0.4472 0.3701 -19.3231 -14.4424 
0.0000 93.1000 0.0000 43.9164 31.0186 34.7788 -70.9878 0.7578 88.0026 112.0148 62.8158 -24.0427 -3.7949 13.0547 5.0743 -164.3764 13.3057 172.1660 -148.3425 51.8602 -177.0703 -0.2205 -14.3318 -26.2969 -84.9873 47.1319 -73.7058 17.4019 -5.9080 -106.1313 -0.2240 0.4451 -0.0098 -2.4567 6.0565 43.6704 -70.8630 -48.3030 41.8982 12.6559 -11.5336 49.5528 -0.3144 -0.3651 -0.3370 -66.3082 -0.8473 84.8689 -3.8577 35.2462 -22.4857 -13.0641 14.6104 3.2878 3.6931 -5.5862 -5.9689 1.1053 2.0354 80.7221 3.7497 54.1997 2.9154 -0.4024 2.4110 -0.9077 0.3463 -23.0496 -28.1192 
0.0000 93.1000 0.0000 43.0185 30.7770 32.7402 -70.9879 0.7415 88.0008 106.9552 63.9577 -19.1033 -2.8825 14.0169 5.2946 -163.4838 14.0315 174.1196 -148.4714 52.6821 -175.9681 -0.3750 -15.2151 -27.2964 -83.1026 47.1930 -71.7007 17.9884 -3.2993 -99.0555 0.0110 0.4352 -0.1814 -2.4374 5.9346 43.9260 -70.9069 -45.2436 45.8723 12.9949 -12.2836 49.6684 -0.2688 -0.5056 -0.4546 -66.1865 -5.0708 84.9509 -4.3953 40.2077 -17.8881 -10.8737 12.9455 2.8608 0.8893 -2.7572 -2.1077 0.0553 1.9175 80.9817 2.7149 46.0920 7.8552 1.1105 3.7254 -0.8102 0.8247 -28.9215 -28.5965 
0.0000 93.1000 0.0000 43.9960 31.8330 29.7382 -70.9912 0.5459 88.0000 108.9868 64.7820 -21.9384 -3.0781 15.1567 5.2757 -163.4791 15.1162 178.1316 -148.6344 53.9139 -175.0213 -0.8796 -15.8819 -28.7787 -80.9488 48.2361 -71.7056 17.8968 0.2043 -89.3709 0.2432 0.4792 -0.2480 -2.6263 5.8193 44.1507 -71.8584 -40.9120 50.7661 13.0324 -11.1930 51.7669 -0.2929 -0.6115 -0.7576 -63.0393 -8.0977 88.8237 -4.8420 50.2421 -12.3933 -9.5400 9.8845 2.4243 0.4945 -4.5551 1.6831 -2.5535 0.9323 80.0503 2.7348 48.2535 5.7488 1.6294 1.6992 -0.6954 2.0258 -26.4059 -30.1860 
0.0000 93.1000 0.0000 45.8727 33.5355 28.8438 -70.9913 -0.3559 88.0033 117.9546 63.9773 -29.8395 -3.8690 15.9065 4.0689 -161.4930 15.9741 178.2996 -147.2332 55.2157 -175.0423 -0.8615 -16.7096 -31.1249 -78.8663 49.1170 -71.7789 15.9771 2.5460 -79.1277 -0.4217 -0.3594 -0.0291 -2.9414 5.3358 47.8579 -70.9852 -34.1410 57.0643 13.0756 -10.0245 54.5598 -0.0370 0.1890 0.0921 -58.0909 -6.8440 92.1627 -8.0637 63.4247 -5.0023 -9.0048 8.1117 2.1394 1.5649 -9.0612 6.7946 -8.7788 2.0764 80.0209 1.8664 53.2256 -3.4740 -0.5930 -9.6581 -0.1972 -0.7215 -3.6369 -10.2420 
